<?xml version="1.0" encoding="utf-8"?>
<svg viewBox="-21.5 -168.5 1123 837" xmlns="http://www.w3.org/2000/svg">
  <defs>
    <filter id="filter0_d" x="0" y="0" width="1123" height="837" filterUnits="userSpaceOnUse" color-interpolation-filters="sRGB">
      <feFlood flood-opacity="0" result="BackgroundImageFix"/>
      <feColorMatrix in="SourceAlpha" type="matrix" values="0 0 0 0 0 0 0 0 0 0 0 0 0 0 0 0 0 0 127 0"/>
      <feOffset dy="4"/>
      <feGaussianBlur stdDeviation="15"/>
      <feColorMatrix type="matrix" values="0 0 0 0 0 0 0 0 0 0 0 0 0 0 0 0 0 0 0.7 0"/>
      <feBlend mode="normal" in2="BackgroundImageFix" result="effect1_dropShadow"/>
      <feBlend mode="normal" in="SourceGraphic" in2="effect1_dropShadow" result="shape"/>
    </filter>
    <linearGradient id="paint0_linear" x1="470.721" y1="674.368" x2="470.721" y2="738.768" gradientUnits="userSpaceOnUse">
      <stop stop-color="#E0E0E0"/>
      <stop offset="0.31" stop-color="#FCCC63"/>
      <stop offset="0.77" stop-color="#F55F44"/>
    </linearGradient>
    <linearGradient id="paint1_linear" x1="548.051" y1="674.118" x2="548.051" y2="738.518" gradientUnits="userSpaceOnUse">
      <stop stop-color="#E0E0E0"/>
      <stop offset="0.31" stop-color="#FCCC63"/>
      <stop offset="0.77" stop-color="#F55F44"/>
    </linearGradient>
    <linearGradient id="paint2_linear" x1="597.051" y1="674.118" x2="597.051" y2="738.518" gradientUnits="userSpaceOnUse">
      <stop stop-color="#E0E0E0"/>
      <stop offset="0.31" stop-color="#FCCC63"/>
      <stop offset="0.77" stop-color="#F55F44"/>
    </linearGradient>
    <linearGradient id="paint3_linear" x1="674.051" y1="674.118" x2="674.051" y2="738.518" gradientUnits="userSpaceOnUse">
      <stop stop-color="#E0E0E0"/>
      <stop offset="0.31" stop-color="#FCCC63"/>
      <stop offset="0.77" stop-color="#F55F44"/>
    </linearGradient>
  </defs>
  <rect width="1123" height="837" fill="black" transform="matrix(1, 0, 0, 1, -21.454764, -168.500005)"/>
  <rect id="background" x="8.545" y="-142.5" width="1063" height="777" rx="20" fill="black" filter="url(#filter0_d)" transform="matrix(1, 0, 0, 1, 0.000001, -0.000001)"/>
  <g id="rocket" transform="matrix(1, 0, 0, 1, -21.454764, -168.500005)" filter="url(#filter0_d)">
    <path id="Vector_17" d="M 650.46 579.566 L 481 579.566 L 481 583.676 L 650.46 583.676 L 650.46 579.566 Z" fill="#535461" style=""/>
    <g id="body-rocket">
      <path id="Vector_18" d="M482.581 674.368H458.851L463.091 645.558H478.341L482.581 674.368Z" fill="#535461"/>
      <path id="Vector_19" d="M685.931 674.368H662.211L666.441 645.558H681.701L685.931 674.368Z" fill="#535461"/>
      <g id="Group" opacity="0.1">
        <path id="Vector_20" opacity="0.1" d="M665.261 656.998H682.881L681.701 648.948H666.441L665.261 656.998Z" fill="black"/>
      </g>
      <path id="Vector_21" d="M559.681 674.368H535.961L540.191 645.558H555.451L559.681 674.368Z" fill="#535461"/>
      <path id="Vector_22" d="M607.981 674.368H584.261L588.491 645.558H603.741L607.981 674.368Z" fill="#535461"/>
      <g id="Group_2" opacity="0.1">
        <path id="Vector_23" opacity="0.1" d="M587.311 656.998H604.931L603.741 648.948H588.491L587.311 656.998Z" fill="black"/>
      </g>
      <path id="Vector_24" d="M 677.861 550.584 L 677.86 550.584 L 677.869 550.587 C 681.479 551.691 686.193 553.527 691.386 556.471 C 702.335 562.771 707.995 569.736 707.901 576.795 L 707.901 576.795 L 707.901 652.796 L 633.901 652.796 L 633.901 577.115 L 633.901 577.114 C 633.785 569.855 639.733 562.695 651.234 556.252 C 655.114 554.109 659.549 552.102 664.436 550.586 L 664.442 550.584 C 665.29 550.312 666.326 550.094 667.481 549.945 C 668.637 549.796 669.887 549.719 671.151 549.719 C 672.415 549.719 673.666 549.796 674.821 549.945 C 675.977 550.094 677.012 550.312 677.861 550.584 Z" fill="#E0E0E0" stroke="black" style=""/>
      <path id="Vector_25" d="M 463.524 550.587 L 463.532 550.584 C 464.38 550.312 465.416 550.094 466.571 549.945 C 467.727 549.796 468.977 549.719 470.241 549.719 C 471.505 549.719 472.755 549.796 473.911 549.945 C 475.067 550.094 476.102 550.312 476.95 550.584 L 476.957 550.587 C 481.853 552.102 486.278 554.109 490.168 556.252 C 501.665 562.696 507.612 569.855 507.501 577.114 L 507.501 577.115 L 507.501 652.796 L 433.501 652.796 L 433.501 576.795 L 433.501 576.795 C 433.408 569.736 439.067 562.771 450.017 556.471 C 455.2 553.527 459.913 551.691 463.524 550.587 Z" fill="#E0E0E0" stroke="black" style=""/>
      <path id="Vector_26" d="M 490.201 578.411 L 508.001 578.437 L 508.001 584.816 L 490.201 584.816 L 490.201 578.411 Z" fill="#535461" style=""/>
      <path id="Vector_27" d="M 633.401 578.411 L 651.191 578.437 L 651.191 584.816 L 633.401 584.816 L 633.401 578.411 Z" fill="#535461" style=""/>
      <g id="Group_3" opacity="0.1">
        <path id="Vector_28" opacity="0.1" d="M490.611 319.648C486.711 312.258 482.261 305.308 477.321 300.048C475.926 298.502 474.062 297.456 472.016 297.071C469.969 296.686 467.852 296.984 465.991 297.918C467.063 298.453 468.032 299.175 468.851 300.048C473.781 305.308 478.241 312.258 482.131 319.648C493.671 341.887 499.638 366.595 499.521 391.648V652.468H508.001V391.658C508.115 366.602 502.147 341.892 490.611 319.648V319.648Z" fill="black"/>
      </g>
      <g id="Group_4" opacity="0.1" style="" transform="matrix(1, 0, 0, 0.479523, 0, 339.990051)">
        <path id="Vector_29" opacity="0.1" d="M657.571 320.368C661.461 312.978 665.921 306.028 670.851 300.768C671.773 299.772 672.889 298.976 674.131 298.428C672.298 297.626 670.26 297.421 668.304 297.841C666.348 298.261 664.573 299.285 663.231 300.768C658.291 306.028 653.831 312.978 649.941 320.368C638.407 342.609 632.44 367.315 632.551 392.368V653.228H640.181V392.388C640.061 367.328 646.029 342.613 657.571 320.368V320.368Z" fill="black"/>
      </g>
      <path id="Vector_30" d="M471.041 738.768H470.391C467.331 738.768 464.395 737.553 462.231 735.388C460.067 733.224 458.851 730.289 458.851 727.228V674.368H482.581V727.228C482.581 730.289 481.365 733.224 479.201 735.388C477.037 737.553 474.102 738.768 471.041 738.768Z" fill="url(#paint0_linear)"/>
      <path id="Vector_31" d="M548.371 738.518H547.721C544.661 738.518 541.725 737.303 539.561 735.138C537.397 732.974 536.181 730.039 536.181 726.978V674.118H559.911V726.978C559.911 730.039 558.695 732.974 556.531 735.138C554.367 737.303 551.432 738.518 548.371 738.518Z" fill="url(#paint1_linear)"/>
      <path id="Vector_32" d="M597.371 738.518H596.721C593.661 738.518 590.725 737.303 588.561 735.138C586.397 732.974 585.181 730.039 585.181 726.978V674.118H608.911V726.978C608.911 730.039 607.695 732.974 605.531 735.138C603.367 737.303 600.432 738.518 597.371 738.518Z" fill="url(#paint2_linear)"/>
      <path id="Vector_33" d="M674.371 738.518H673.721C670.661 738.518 667.725 737.303 665.561 735.138C663.397 732.974 662.181 730.039 662.181 726.978V674.118H685.911V726.978C685.911 730.039 684.695 732.974 682.531 735.138C680.367 737.303 677.432 738.518 674.371 738.518Z" fill="url(#paint3_linear)"/>
      <path id="Vector_34" d="M578.51 96.4834L578.52 96.4957L578.531 96.5076C583.685 102.221 590.434 111.588 597.797 126.726L597.798 126.73C613.465 158.638 621.544 194.732 621.655 231.32L622.93 650.608L517.93 650.927L516.661 233.319C516.547 195.664 524.762 158.515 541.048 125.774C546.594 114.716 552.917 104.371 559.813 96.561L559.822 96.5507L559.831 96.5402C560.972 95.1742 562.398 94.0744 564.009 93.3179C565.62 92.5615 567.377 92.1667 569.157 92.1613C570.937 92.1559 572.697 92.54 574.312 93.2866C575.928 94.0333 577.361 95.1244 578.51 96.4834Z" fill="#EEEEEE" stroke="black" stroke-width="2"/>
      <path id="Vector_35" d="M585.811 142.368H551.971C545.896 142.368 540.971 147.293 540.971 153.368V156.958C540.971 163.034 545.896 167.958 551.971 167.958H585.811C591.886 167.958 596.811 163.034 596.811 156.958V153.368C596.811 147.293 591.886 142.368 585.811 142.368Z" fill="#535461"/>
      <path id="Vector_36" d="M 433.431 578.411 L 451.231 578.437 L 451.231 584.816 L 433.431 584.816 L 433.431 578.411 Z" fill="#535461" style=""/>
      <path id="Vector_37" d="M 690.171 578.411 L 707.961 578.437 L 707.961 584.816 L 690.171 584.816 L 690.171 578.411 Z" fill="#535461" style=""/>
    </g>
  </g>
</svg>